<?xml version="1.0" standalone="no"?>
<!DOCTYPE svg PUBLIC "-//W3C//DTD SVG 20010904//EN"
 "http://www.w3.org/TR/2001/REC-SVG-20010904/DTD/svg10.dtd">
<svg version="1.0" xmlns="http://www.w3.org/2000/svg"
 width="256.000000pt" height="256.000000pt" viewBox="0 0 256.000000 256.000000"
 preserveAspectRatio="xMidYMid meet">
<metadata>
Created by potrace 1.14, written by Peter Selinger 2001-2017
</metadata>
<g transform="translate(0.000000,256.000000) scale(0.100000,-0.100000)"
fill="#000000" stroke="none">
<path d="M510 2508 c-90 -16 -207 -75 -280 -141 -66 -59 -151 -193 -163 -257
-3 -14 -10 -45 -15 -69 -7 -27 -10 -317 -9 -785 2 -737 2 -741 24 -812 38
-119 127 -238 230 -307 57 -39 167 -83 228 -92 45 -7 1469 -8 1500 -1 97 21
125 31 183 60 131 66 228 179 289 336 16 41 18 108 21 795 2 514 -1 770 -8
815 -30 175 -168 348 -335 420 -47 20 -56 23 -134 39 -55 11 -1469 11 -1531
-1z"/>
</g>
</svg>
