<?xml version="1.0" standalone="no"?>
<!DOCTYPE svg PUBLIC "-//W3C//DTD SVG 20010904//EN"
 "http://www.w3.org/TR/2001/REC-SVG-20010904/DTD/svg10.dtd">
<svg version="1.0" xmlns="http://www.w3.org/2000/svg"
 width="256.000000pt" height="256.000000pt" viewBox="0 0 256.000000 256.000000"
 preserveAspectRatio="xMidYMid meet">
<metadata>
Created by potrace 1.14, written by Peter Selinger 2001-2017
</metadata>
<g transform="translate(0.000000,256.000000) scale(0.100000,-0.100000)"
fill="#000000" stroke="none">
<path d="M545 2510 c-134 -18 -238 -71 -335 -169 -72 -74 -119 -154 -147 -251
-17 -60 -18 -118 -18 -810 0 -827 -2 -801 68 -935 45 -85 155 -194 242 -237
137 -69 133 -69 960 -66 l740 3 74 27 c176 64 310 202 364 373 22 70 22 73 22
830 0 624 -3 769 -14 810 -55 195 -212 353 -406 411 -55 16 -123 18 -775 20
-393 1 -742 -2 -775 -6z m274 -577 c13 -11 105 -221 237 -538 119 -286 217
-521 218 -522 3 -3 58 127 326 757 67 157 129 293 137 303 11 11 31 17 59 17
34 0 47 -5 63 -26 12 -15 21 -37 21 -50 0 -13 -25 -81 -56 -151 -31 -70 -148
-339 -261 -598 -112 -259 -214 -480 -225 -493 -30 -31 -92 -31 -119 1 -34 37
-539 1203 -539 1242 0 48 29 75 79 75 22 0 48 -7 60 -17z"/>
</g>
</svg>
